# xmcd
#
# Track frame offsets: 
#        150
#        31189
#        71280
#        106382
#        129374
#        156612
#        180014
#        199524
#        224189
#        252916
#        273807
#        308696
#
# Disc length: 4482 seconds
#
# Revision: 0
# Processed by: cddbd v1.4PL0 Copyright (c) Steve Scherf et al.
# Submitted via: ExactAudioCopy v0.90b4
#
DISCID=a011800c
DTITLE=Van Morrison - October In The Rain, disc 2
DYEAR=1999
DGENRE=Celtic
TTITLE0=Help Me
TTITLE1=It's All In The Game > You Know What They're Writing About
TTITLE2=It's A Man's Man's Man's World > When The Clock Strikes
TTITLE3=Precious Time
TTITLE4=Just Like a Woman
TTITLE5=Gloria
TTITLE6=Ain't That Loving You Baby
TTITLE7=Georgia
TTITLE8=The Healing Game
TTITLE9=Have I Told You Lately
TTITLE10=Golden Autumn Days
TTITLE11=When Will I Ever Learn To Live In God
EXTD=
EXTT0=
EXTT1=
EXTT2=
EXTT3=
EXTT4=
EXTT5=
EXTT6=
EXTT7=
EXTT8=
EXTT9=
EXTT10=
EXTT11=
PLAYORDER=
